<svg xmlns="http://www.w3.org/2000/svg" width="120" height="120" viewBox="0 0 120 120"><g transform="translate(21 20.46)" fill="none" stroke-miterlimit="10"><path d="M69.126,45.777V30.41A30.287,30.287,0,0,0,50.06,2.286,39.529,39.529,0,0,0,38.419,0,34.248,34.248,0,0,0,27.3,2.286,29.821,29.821,0,0,0,8.236,30.429V45.777L.38,61.862A3.728,3.728,0,0,0,3.726,67.23h23v.363a11.947,11.947,0,0,0,23.894,0V67.23H73.637a3.728,3.728,0,0,0,3.346-5.368Z" stroke="none"/><path d="M 38.67193603515625 77.54011535644531 C 44.15668869018555 77.54011535644531 48.61887359619141 73.07793426513672 48.61887359619141 67.59317779541016 L 48.61887359619141 65.22972869873047 L 73.63578033447266 65.22972869873047 C 74.23587799072266 65.22942352294922 74.78364562988281 64.92520904541016 75.10105895996094 64.41593170166016 C 75.41847229003906 63.90665435791016 75.45033264160156 63.2808837890625 75.1851806640625 62.73971557617188 L 67.12638092041016 46.23973083496094 L 67.12638092041016 30.41086959838867 C 67.12506103515625 24.73180770874023 65.43993377685547 19.245361328125 62.25319671630859 14.54466915130615 C 59.07150268554688 9.851451873779297 54.60848617553711 6.258896350860596 49.34440231323242 4.153628826141357 C 48.96799087524414 4.016664981842041 43.3358154296875 2.000007629394531 38.41852188110352 2.000007629394531 C 33.40907287597656 2.000007629394531 28.10619735717773 4.118192195892334 28.0547046661377 4.138992309570312 L 28.02390480041504 4.151176929473877 C 22.71232032775879 6.204469203948975 18.21647453308105 9.781761169433594 15.0224437713623 14.49633121490479 C 11.82839775085449 19.21089935302734 10.17327499389648 24.71271514892578 10.23601341247559 30.40702247619629 L 10.2361364364624 30.42905426025391 L 10.2361364364624 46.23973083496094 L 2.176228284835815 62.74199295043945 C 1.912182211875916 63.2808837890625 1.944043755531311 63.90665435791016 2.261459112167358 64.41593170166016 C 2.578874588012695 64.92520904541016 3.126643657684326 65.22942352294922 3.725751399993896 65.22972869873047 L 28.72499847412109 65.22972869873047 L 28.72499847412109 67.59317779541016 C 28.72499847412109 73.07793426513672 33.18718338012695 77.54011535644531 38.67193603515625 77.54011535644531 M 38.67193603515625 79.54011535644531 C 32.07382965087891 79.54011535644531 26.72499847412109 74.1912841796875 26.72499847412109 67.59317779541016 L 26.72499847412109 67.22972869873047 L 3.725751399993896 67.22972869873047 C 2.439505338668823 67.22908782958984 1.244474530220032 66.56537628173828 0.5641360878944397 65.47380828857422 C -0.1162023842334747 64.38222503662109 -0.185710072517395 63.01702499389648 0.3802284002304077 61.86199188232422 L 8.236136436462402 45.77742385864258 L 8.236136436462402 30.42905426025391 C 8.099089622497559 17.98922348022461 15.69901275634766 6.771346092224121 27.30278205871582 2.285715341567993 C 27.30278205871582 2.285715341567993 32.93638229370117 7.709679266554303e-06 38.41852188110352 7.709679266554303e-06 C 43.90067291259766 7.709679266554303e-06 50.05973434448242 2.285715341567993 50.05973434448242 2.285715341567993 C 61.57082748413086 6.876792430877686 69.12350463867188 18.0175609588623 69.12638092041016 30.41040802001953 L 69.12638092041016 45.77742385864258 L 76.98229217529297 61.86199188232422 C 77.54822540283203 63.01702499389648 77.47872161865234 64.38222503662109 76.79838562011719 65.47380828857422 C 76.1180419921875 66.56537628173828 74.92301177978516 67.22908782958984 73.63677978515625 67.22972869873047 L 50.61887359619141 67.22972869873047 L 50.61887359619141 67.59317779541016 C 50.61887359619141 74.1912841796875 45.27005767822266 79.54011535644531 38.67193603515625 79.54011535644531 Z" stroke="none" fill="#46b843"/></g><path d="M.571.25H57.714" transform="translate(30.143 86.286)" fill="none" stroke="#46b843" stroke-linecap="square" stroke-miterlimit="10" stroke-width="2"/></svg>