<svg xmlns="http://www.w3.org/2000/svg" width="120" height="120" viewBox="0 0 120 120"><g transform="translate(19 20)"><g transform="translate(1.739)" fill="none" stroke-miterlimit="10"><path d="M67.18,80a2.6,2.6,0,0,1-2.551-2.53A64.824,64.824,0,0,0,2.53,15.281,2.6,2.6,0,0,1,0,12.731V2.462A2.461,2.461,0,0,1,2.53,0a79.7,79.7,0,0,1,54,23.435A79.8,79.8,0,0,1,79.954,77.47,2.46,2.46,0,0,1,77.5,80Zm-27.23,0a2.661,2.661,0,0,1-2.585-2.52A37.312,37.312,0,0,0,26.47,53.43,37.231,37.231,0,0,0,2.51,42.521,2.656,2.656,0,0,1,0,39.931V29.666a2.425,2.425,0,0,1,2.51-2.444A52.531,52.531,0,0,1,37.284,42.656,52.723,52.723,0,0,1,52.719,77.47,2.431,2.431,0,0,1,50.285,80Z" stroke="none"/><path d="M 77.49900054931641 78.00010681152344 C 77.66548919677734 78.00010681152344 77.77622985839844 77.91138458251953 77.82741546630859 77.85850524902344 C 77.88848876953125 77.79541778564453 77.96024322509766 77.68814086914062 77.95518493652344 77.53282928466797 C 77.64031982421875 67.48375701904297 75.43158721923828 57.74563217163086 71.39033508300781 48.58898544311523 C 69.44247436523438 44.17550659179688 67.06597137451172 39.91543197631836 64.32685852050781 35.92709350585938 C 61.61079788208008 31.97232437133789 58.51148986816406 28.2455997467041 55.114013671875 24.84943199157715 C 51.71670532226562 21.44841575622559 47.99001312255859 18.34615516662598 44.03741455078125 15.62884712219238 C 40.05179977416992 12.88883113861084 35.79521560668945 10.51200103759766 31.38592338562012 8.56441593170166 C 22.24318313598633 4.526031494140625 12.51336860656738 2.317415952682495 2.464691877365112 1.999846816062927 L 2.449645519256592 1.999600648880005 C 2.205907106399536 1.999600648880005 1.999999403953552 2.211123704910278 1.999999403953552 2.461493015289307 L 1.999999403953552 12.73140048980713 C 1.999999403953552 13.01713943481445 2.278953313827515 13.26958560943604 2.607430219650269 13.28261566162109 C 11.09876823425293 13.61196994781494 19.32612228393555 15.53050804138184 27.06095314025879 18.98492431640625 C 34.54950714111328 22.32937049865723 41.30095291137695 26.98352432250977 47.12773895263672 32.81812286376953 C 52.95478439331055 38.65298461914062 57.60198593139648 45.41297149658203 60.94027709960938 52.91030883789062 C 64.38861846923828 60.65478515625 66.30209350585938 68.89220428466797 66.62741851806641 77.39072418212891 C 66.64055633544922 77.72104644775391 66.8934326171875 78.00010681152344 67.17959594726562 78.00010681152344 L 77.49900054931641 78.00010681152344 M 50.28479766845703 78.00010681152344 C 50.45010757446289 78.00010681152344 50.55776977539062 77.91315460205078 50.60723114013672 77.86130523681641 C 50.66298294067383 77.80287933349609 50.72807693481445 77.70384979248047 50.72159957885742 77.56597137451172 C 50.11647796630859 64.94297027587891 44.84195327758789 53.04695510864258 35.86889266967773 44.06852340698242 C 26.8994026184082 35.08375930786133 15.02061748504639 29.81035041809082 2.420870542526245 29.21941757202148 C 2.190414905548096 29.21015548706055 1.999999403953552 29.41333389282227 1.999999403953552 29.66580009460449 L 1.999999403953552 39.93120193481445 C 1.999999403953552 40.22907638549805 2.29638409614563 40.50109481811523 2.64389181137085 40.52497100830078 C 7.39024543762207 40.84317016601562 11.97912216186523 41.99620056152344 16.28302955627441 43.95206069946289 C 20.60239219665527 45.91494750976562 24.50540542602539 48.6279182434082 27.88411712646484 52.01609802246094 C 31.26975631713867 55.39229202270508 33.98028182983398 59.30365753173828 35.94086074829102 63.64201736450195 C 37.8919677734375 67.95941925048828 39.04232406616211 72.57057189941406 39.360107421875 77.34907531738281 C 39.38287734985352 77.69587707519531 39.65815353393555 78.00010681152344 39.94919967651367 78.00010681152344 L 50.28479766845703 78.00010681152344 M 77.49900054931641 80.00010681152344 L 67.17959594726562 80.00010681152344 C 65.79450988769531 80.00010681152344 64.68390655517578 78.85079956054688 64.62899780273438 77.47019958496094 C 63.33930587768555 43.78050994873047 36.17459869384766 16.58609199523926 2.5299072265625 15.28110790252686 C 1.144799470901489 15.22620105743408 -5.432128773463774e-07 14.11109256744385 -5.432128773463774e-07 12.73140048980713 L -5.432128773463774e-07 2.461493015289307 C -5.432129341897962e-07 1.08089292049408 1.1447993516922 -0.04410696402192116 2.5299072265625 0.0009083331678994 C 23.57460021972656 0.6660006642341614 42.58979797363281 9.481508255004883 56.52899932861328 23.43600082397461 C 70.464599609375 37.3661994934082 79.29450988769531 56.41559982299805 79.95420074462891 77.47019958496094 C 79.99919891357422 78.85079956054688 78.87960052490234 80.00010681152344 77.49900054931641 80.00010681152344 Z M 50.28479766845703 80.00010681152344 L 39.94919967651367 80.00010681152344 C 38.56950759887695 80.00010681152344 37.45439910888672 78.85079956054688 37.36439895629883 77.48011016845703 C 36.75959777832031 68.38559722900391 32.94450759887695 59.88600158691406 26.46990776062012 53.4303092956543 C 20.00970649719238 46.95120239257812 11.54519939422607 43.12620162963867 2.510107040405273 42.52049255371094 C 1.134907126426697 42.42600250244141 -5.432128773463774e-07 41.31090927124023 -5.432128773463774e-07 39.93120193481445 L -5.432128773463774e-07 29.66580009460449 C -5.432129341897962e-07 28.28070831298828 1.134923100471497 27.16117477416992 2.510107040405273 27.22140121459961 C 16.06499862670898 27.85589218139648 28.28970718383789 33.64559936523438 37.28430557250977 42.65550994873047 C 46.30410766601562 51.68070983886719 52.06950759887695 63.91530990600586 52.71930694580078 77.47019958496094 C 52.78410720825195 78.85079956054688 51.66450881958008 80.00010681152344 50.28479766845703 80.00010681152344 Z" stroke="none" fill="#46b843"/></g><circle cx="10.435" cy="10.435" r="10.435" transform="translate(0 59.13)" fill="none" stroke="#46b843" stroke-miterlimit="10" stroke-width="2"/></g></svg>