<svg xmlns="http://www.w3.org/2000/svg" xmlns:xlink="http://www.w3.org/1999/xlink"><defs><style>
    .sprite-symbol-usage {display: none;}
    .sprite-symbol-usage:target {display: inline;}
  </style><symbol viewBox="0 0 11.152 10.611" id="comment"><g fill="none" stroke-miterlimit="10"><path d="M10.455 0H.7a.719.719 0 0 0-.7.713v7.319a.654.654 0 0 0 .7.635h.7v1.584c0 .376.282.439.629.277l3.742-1.861h4.684a.654.654 0 0 0 .7-.635V.713a.719.719 0 0 0-.7-.713Z" /><path d="M1.5 1.5v5.667h1.394V8.42l2.525-1.253h4.233V1.5H1.5M.697 0h9.758c.383 0 .697.339.697.713v7.319c0 .375-.314.635-.697.635H5.77l-3.748 1.86c-.347.163-.63.1-.63-.276V8.667H.698c-.383 0-.697-.26-.697-.635V.713C0 .34.314 0 .697 0Z" fill="currentColor" /></g></symbol><symbol viewBox="0 0 120 120" id="light"><g fill="none" stroke-miterlimit="10"><path d="M90.126 66.237V50.87A30.287 30.287 0 0 0 71.06 22.746a39.529 39.529 0 0 0-11.641-2.286A34.248 34.248 0 0 0 48.3 22.746a29.821 29.821 0 0 0-19.064 28.143v15.348L21.38 82.322a3.728 3.728 0 0 0 3.346 5.368h23v.363a11.947 11.947 0 0 0 23.894 0v-.363h23.017a3.728 3.728 0 0 0 3.346-5.368Z" /><path d="M59.672 98c5.485 0 9.947-4.462 9.947-9.947V85.69h25.017c.6 0 1.148-.305 1.465-.814.317-.51.35-1.135.084-1.676l-8.059-16.5V50.87a28.182 28.182 0 0 0-4.873-15.865 28.18 28.18 0 0 0-12.909-10.391c-.376-.137-6.008-2.154-10.925-2.154-5.01 0-10.313 2.118-10.364 2.139l-.031.012a27.695 27.695 0 0 0-13.002 10.345 27.695 27.695 0 0 0-4.786 15.911v15.832l-8.06 16.503a1.718 1.718 0 0 0 .085 1.674c.318.51.866.813 1.465.814h24.999v2.363c0 5.485 4.462 9.947 9.947 9.947m0 2c-6.598 0-11.947-5.349-11.947-11.947v-.363h-23a3.728 3.728 0 0 1-3.345-5.368l7.856-16.085V50.89a29.82 29.82 0 0 1 19.067-28.143s5.633-2.286 11.116-2.286c5.482 0 11.64 2.286 11.64 2.286A30.287 30.287 0 0 1 90.127 50.87v15.367l7.856 16.085a3.728 3.728 0 0 1-3.345 5.368H71.619v.363c0 6.598-5.349 11.947-11.947 11.947Z" fill="#46b843" /></g><path d="M30.714 86.536h57.143" fill="none" stroke="#46b843" stroke-linecap="square" stroke-miterlimit="10" stroke-width="2" /></symbol><symbol viewBox="0 0 120 120" id="rss"><g transform="translate(19 20)" fill="none" stroke-miterlimit="10"><path d="M68.919 80a2.6 2.6 0 0 1-2.551-2.53A64.824 64.824 0 0 0 4.269 15.281a2.6 2.6 0 0 1-2.53-2.55V2.462A2.461 2.461 0 0 1 4.269 0a79.7 79.7 0 0 1 54 23.435A79.8 79.8 0 0 1 81.693 77.47 2.46 2.46 0 0 1 79.239 80Zm-27.23 0a2.661 2.661 0 0 1-2.585-2.52 37.312 37.312 0 0 0-10.895-24.05 37.231 37.231 0 0 0-23.96-10.909 2.656 2.656 0 0 1-2.51-2.59V29.666a2.425 2.425 0 0 1 2.51-2.444 52.531 52.531 0 0 1 34.774 15.434A52.723 52.723 0 0 1 54.458 77.47 2.431 2.431 0 0 1 52.024 80Z" /><path d="M79.238 78a.457.457 0 0 0 .328-.141.44.44 0 0 0 .128-.326 77.35 77.35 0 0 0-6.565-28.944 78.189 78.189 0 0 0-7.063-12.662 78.7 78.7 0 0 0-9.213-11.078 78.778 78.778 0 0 0-11.077-9.22 78.07 78.07 0 0 0-12.651-7.065C23.982 4.526 14.252 2.317 4.204 2h-.015a.462.462 0 0 0-.45.461v10.27c0 .286.279.539.607.552A65.968 65.968 0 0 1 28.8 18.985a66.71 66.71 0 0 1 20.067 13.833A66.776 66.776 0 0 1 62.679 52.91a66.139 66.139 0 0 1 5.687 24.48c.014.331.266.61.553.61h10.319m-27.214 0a.444.444 0 0 0 .322-.139.397.397 0 0 0 .115-.295c-.606-12.623-5.88-24.519-14.853-33.497-8.97-8.985-20.848-14.259-33.448-14.85-.23-.009-.421.194-.421.447V39.93c0 .298.296.57.644.594a39.185 39.185 0 0 1 13.639 3.427 39.294 39.294 0 0 1 11.601 8.064 39.111 39.111 0 0 1 8.057 11.626 39.534 39.534 0 0 1 3.42 13.707c.022.347.297.651.588.651h10.336m27.214 2h-10.32c-1.384 0-2.495-1.15-2.55-2.53-1.29-33.69-28.454-60.884-62.1-62.189-1.384-.055-2.529-1.17-2.529-2.55V2.461a2.461 2.461 0 0 1 2.53-2.46c21.045.665 40.06 9.48 53.999 23.435 13.936 13.93 22.766 32.98 23.425 54.034A2.46 2.46 0 0 1 79.238 80Zm-27.214 0H41.688c-1.38 0-2.495-1.15-2.585-2.52-.604-9.094-4.42-17.594-10.894-24.05-6.46-6.479-14.925-10.304-23.96-10.91-1.375-.094-2.51-1.21-2.51-2.589V29.666c0-1.385 1.135-2.505 2.51-2.445 13.555.635 25.78 6.425 34.774 15.435 9.02 9.025 14.786 21.26 15.435 34.814.065 1.38-1.054 2.53-2.434 2.53Z" fill="#46b843" /><circle cx="10.435" cy="10.435" r="10.435" transform="translate(0 59.13)" stroke="#46b843" stroke-width="2" /></g></symbol><symbol viewBox="0 0 20.414 20.414" id="search"><g transform="translate(1 1)" fill="none" stroke="#22252e" stroke-linecap="round" stroke-linejoin="round" stroke-miterlimit="10" stroke-width="2"><circle cx="7.5" cy="7.5" r="7.5" /><path d="m18 18-5.2-5.2" /></g></symbol></defs><use id="comment-usage" xlink:href="#comment" class="sprite-symbol-usage" /><use id="light-usage" xlink:href="#light" class="sprite-symbol-usage" /><use id="rss-usage" xlink:href="#rss" class="sprite-symbol-usage" /><use id="search-usage" xlink:href="#search" class="sprite-symbol-usage" /></svg>